<svg width="64" height="59.992" xmlns="http://www.w3.org/2000/svg">

 <g>
  <title>background</title>
  <rect fill="none" id="canvas_background" height="59.992" width="64" y="-1" x="-1"/>
 </g>
 <g>
  <title>Layer 1</title>
  <path id="svg_2" fill="#ffffff" d="m32,0c-15.464,0 -28,12.535 -28,27.996l0,9.998c0,1.105 0.895,2 2,2c1.104,0 1.999,-0.895 2,-1.999l0,-9.999c0,-13.253 10.745,-23.997 24,-23.997s24,10.744 24,23.997l0,9.998c0,1.105 0.895,2 2,2c1.104,0 1.999,-0.895 2,-1.999l0,-9.999c0,-15.461 -12.536,-27.996 -28,-27.996z"/>
  <path id="svg_4" fill-rule="evenodd" clip-rule="evenodd" fill="#ffffff" d="m7,33.996c-6.075,0 -7,4.924 -7,10.998s0.925,10.998 7,10.998s3,-4.924 3,-10.998s3.075,-10.998 -3,-10.998zm50.604,0c-5.742,0 -2.836,4.924 -2.836,10.998s-2.906,10.998 2.836,10.998c5.741,0 6.396,-4.924 6.396,-10.998s-0.655,-10.998 -6.396,-10.998z"/>
  <path id="svg_6" fill-rule="evenodd" clip-rule="evenodd" fill="#ffffff" d="m12,29.996c-3.314,0 -6,2.687 -6,5.999l0,17.998c0,3.313 2.686,5.999 6,5.999c3.313,0 6,-2.686 6,-5.999l0,-17.998c0,-3.312 -2.687,-5.999 -6,-5.999zm40,0c-3.314,0 -6,2.687 -6,5.999l0,17.998c0,3.313 2.686,5.999 6,5.999c3.313,0 6,-2.686 6,-5.999l0,-17.998c0,-3.312 -2.687,-5.999 -6,-5.999z"/>
 </g>
</svg>